<?xml version="1.0" encoding="utf-8"?>
<!-- Generator: Adobe Illustrator 24.0.0, SVG Export Plug-In . SVG Version: 6.00 Build 0)  -->
<svg version="1.1" id="Capa_1" xmlns="http://www.w3.org/2000/svg" xmlns:xlink="http://www.w3.org/1999/xlink" x="0px" y="0px"
	 viewBox="0 0 16 20" style="enable-background:new 0 0 16 20;" xml:space="preserve">
<style type="text/css">
	.st0{fill:#435387;}
</style>
<title>swiss knife</title>
<g>
	<path class="st0" d="M12,3.5v9c0,1.9-1.6,3.5-3.5,3.5c-1,0-2-0.5-2.6-1.2c0.1,0.1,0.2,0.1,0.3,0.1s0.2,0,0.3-0.1
		c0.2-0.2,0.2-0.5,0.1-0.7C7,14.7,7.7,15,8.5,15c1.4,0,2.5-1.1,2.5-2.5v-9c0-0.5-0.2-1-0.4-1.4l-0.1-0.2c0,0,0,0,0,0
		c-0.1-0.2-0.1-0.5,0.1-0.7c0.2-0.1,0.4-0.1,0.6,0c0,0,0,0.1,0.1,0.1l0.2,0.2l0,0C11.8,2.1,12,2.8,12,3.5z"/>
	<path class="st0" d="M15.8,7.9c-0.6,0.6-1.3,0.9-2.1,0.9c-0.6,0-1.2-0.2-1.7-0.5V6.8L12.1,7c0.7,0.8,1.8,1,2.7,0.5L12,3.9V3.5
		c0-0.7-0.2-1.4-0.6-1.9l4.5,5.6C16,7.4,16,7.7,15.8,7.9z"/>
	<path class="st0" d="M11.2,1.2c-0.2-0.1-0.4-0.2-0.6,0c-0.2,0.2-0.3,0.5-0.1,0.7C10,1.3,9.3,1,8.5,1C7.1,1,6,2.1,6,3.5v9
		c0,0.6,0.2,1.2,0.6,1.6c0.2,0.2,0.1,0.5-0.1,0.7c-0.1,0.1-0.2,0.1-0.3,0.1s-0.2,0-0.3-0.1c0,0,0,0,0,0C5.3,14.2,5,13.4,5,12.5v-9
		C5,1.6,6.6,0,8.5,0C9.5,0,10.5,0.5,11.2,1.2z"/>
	<path class="st0" d="M5.9,14.8C5.8,14.8,5.8,14.8,5.9,14.8l-5.8-7C0,7.7,0,7.6,0,7.5v-2C0,5.2,0.2,5,0.5,5h2c0.2,0,0.3,0.1,0.4,0.2
		L5,7.8v1.6L2.3,6H1v1.3l4,4.9v0.3C5,13.4,5.3,14.2,5.9,14.8z"/>
	<path class="st0" d="M10.5,11.5c0,0.3-0.2,0.5-0.5,0.5H9v1c0,0.3-0.2,0.5-0.5,0.5S8,13.3,8,13v-1H7c-0.3,0-0.5-0.2-0.5-0.5
		S6.7,11,7,11h1v-1c0-0.3,0.2-0.5,0.5-0.5S9,9.7,9,10v1h1C10.3,11,10.5,11.2,10.5,11.5z"/>
	<path class="st0" d="M8.5,5C7.7,5,7,4.3,7,3.5S7.7,2,8.5,2S10,2.7,10,3.5S9.3,5,8.5,5z M8.5,3C8.2,3,8,3.2,8,3.5S8.2,4,8.5,4
		S9,3.8,9,3.5S8.8,3,8.5,3z"/>
</g>
<text transform="matrix(1 0 0 1 0 31)" style="font-family:'HelveticaNeue-Bold'; font-size:5px;">Created by icon 54</text>
<text transform="matrix(1 0 0 1 0 36)" style="font-family:'HelveticaNeue-Bold'; font-size:5px;">from the Noun Project</text>
<text transform="matrix(1 0 0 1 -72.8114 50.1762)" style="font-family:'MyriadPro-Regular'; font-size:12px;">swiss knife by icon 54 from the Noun Project</text>
</svg>
