<?xml version="1.0" encoding="utf-8"?>
<!-- Generator: Adobe Illustrator 24.0.0, SVG Export Plug-In . SVG Version: 6.00 Build 0)  -->
<svg version="1.1" id="Capa_1" xmlns="http://www.w3.org/2000/svg" xmlns:xlink="http://www.w3.org/1999/xlink" x="0px" y="0px"
	 viewBox="0 0 95 118.8" style="enable-background:new 0 0 95 118.8;" xml:space="preserve">
<style type="text/css">
	.st0{fill:#435387;}
	.st1{font-family:'HelveticaNeue-Bold';}
	.st2{font-size:5px;}
</style>
<g>
	<path class="st0" d="M66.2,56.3v38.2h24.2V56.3H66.2z M84.9,89H71.7V61.8h13.2C84.9,61.8,84.9,89,84.9,89z"/>
	<path class="st0" d="M79.5,50.2V26.3v-5.5V0.5H30.3h-5.5H4.6v62.6v3.1V88h53.9V68.5V63V50.2H79.5z M74,44.7H58.6V26.3H74V44.7z
		 M30.3,6H74v14.8H58.6h-5.5H30.3V6z M10.1,6h14.7v14.8v5.5v34.4H10.1V6z M53.1,82.5h-43v-14h14.7h28.3V82.5z M53.1,63.1H30.3V26.3
		h22.8v23.9V63.1z"/>
</g>
<text transform="matrix(1 0 0 1 0 110)" class="st1 st2">Created by DPIcons</text>
<text transform="matrix(1 0 0 1 0 115)" class="st1 st2">from the Noun Project</text>
<text transform="matrix(1 0 0 1 -12.3114 132.7151)" style="font-family:'MyriadPro-Regular'; font-size:12px;">modular by DPIcons from the Noun Project</text>
</svg>
