<svg xmlns="http://www.w3.org/2000/svg" width="210" height="120" viewBox="0 0 210 120">
  <g id="home_multifunc_icon" transform="translate(-535 -647)">
    <path id="Trazado_16" data-name="Trazado 16" d="M0,0H210V120H0V0Z" transform="translate(535 647)" fill="#435387"/>
    <g id="Grupo_26" data-name="Grupo 26" transform="translate(593 660)">
      <path id="Trazado_9" data-name="Trazado 9" d="M41.928,15V67.867A20.61,20.61,0,0,1,21.312,88.426,20.187,20.187,0,0,1,5.88,81.377a2.845,2.845,0,0,0,1.767.646,3.178,3.178,0,0,0,1.885-.646,3.023,3.023,0,0,0,.412-4.17,14.737,14.737,0,0,0,26.093-9.339V15A14.607,14.607,0,0,0,33.5,6.78L32.8,5.84c-.059-.059-.059-.117-.118-.176a2.882,2.882,0,0,1,.707-3.935,3.011,3.011,0,0,1,3.652.059c.177.176.295.352.471.529l.884,1.175.118.176A20.215,20.215,0,0,1,41.928,15Z" transform="translate(28.61 5.574)" fill="#fff"/>
      <path id="Trazado_10" data-name="Trazado 10" d="M37.513,38.619a17.754,17.754,0,0,1-22.677,2V32.376l.766.942a12.1,12.1,0,0,0,15.727,2.709L14.836,15.235v-2.3A20.311,20.311,0,0,0,11.42,1.57l26.329,33.1A2.973,2.973,0,0,1,37.513,38.619Z" transform="translate(55.603 7.678)" fill="#fff"/>
      <path id="Trazado_11" data-name="Trazado 11" d="M41.342,7.342a3.011,3.011,0,0,0-3.652-.059,2.882,2.882,0,0,0-.707,3.936A14.737,14.737,0,0,0,10.89,20.559V73.424a14.505,14.505,0,0,0,3.357,9.339,3.023,3.023,0,0,1-.412,4.17,3.178,3.178,0,0,1-1.885.646,2.846,2.846,0,0,1-1.767-.646h-.059A20.336,20.336,0,0,1,5,73.424V20.559A20.583,20.583,0,0,1,41.342,7.342Z" transform="translate(24.327)" fill="#fff"/>
      <path id="Trazado_12" data-name="Trazado 12" d="M34.575,62.724a2.95,2.95,0,0,1-.471-.412L.648,21.61A3.043,3.043,0,0,1,0,19.725V7.945A2.916,2.916,0,0,1,2.945,5h11.78a3.131,3.131,0,0,1,2.3,1.06L29.451,21.2v9.365L13.312,10.89H5.89v7.775L29.451,47.291v1.885A20.424,20.424,0,0,0,34.575,62.724Z" transform="translate(0 24.208)" fill="#fff"/>
      <path id="Trazado_13" data-name="Trazado 13" d="M30.061,21.28a2.916,2.916,0,0,1-2.945,2.945h-5.89v5.89a2.945,2.945,0,1,1-5.89,0v-5.89H9.445a2.945,2.945,0,0,1,0-5.89h5.89v-5.89a2.945,2.945,0,0,1,5.89,0v5.89h5.89A2.916,2.916,0,0,1,30.061,21.28Z" transform="translate(31.655 46.264)" fill="#fff"/>
      <path id="Trazado_14" data-name="Trazado 14" d="M15.835,19.671a8.835,8.835,0,1,1,8.835-8.835A8.823,8.823,0,0,1,15.835,19.671Zm0-11.78a2.945,2.945,0,1,0,2.945,2.945A2.916,2.916,0,0,0,15.835,7.89Z" transform="translate(34.1 9.78)" fill="#fff"/>
    </g>
  </g>
</svg>
