<svg xmlns="http://www.w3.org/2000/svg" width="210" height="120" viewBox="0 0 210 120">
  <g id="home_ajustables_icon" transform="translate(-895 -647)">
    <rect id="Rectángulo_369" data-name="Rectángulo 369" width="210" height="120" transform="translate(895 647)" fill="#435387"/>
    <path id="Trazado_15" data-name="Trazado 15" d="M64.756,0H25.067a2.1,2.1,0,0,0-2.089,2.089V91.911A2.1,2.1,0,0,0,25.067,94H64.756a2.1,2.1,0,0,0,2.089-2.089V2.089A2.1,2.1,0,0,0,64.756,0ZM62.667,89.822H27.156V4.178H62.667ZM87.733,7.311H73.111A2.1,2.1,0,0,0,71.022,9.4V84.6a2.1,2.1,0,0,0,2.089,2.089H87.733A2.1,2.1,0,0,0,89.822,84.6V9.4A2.1,2.1,0,0,0,87.733,7.311Zm-2.089,75.2H75.2V11.489H85.644ZM16.711,7.311H2.089A2.1,2.1,0,0,0,0,9.4V84.6a2.1,2.1,0,0,0,2.089,2.089H16.711A2.1,2.1,0,0,0,18.8,84.6V9.4A2.1,2.1,0,0,0,16.711,7.311Zm-2.089,75.2H4.178V11.489H14.622Z" transform="translate(955 660)" fill="#fff"/>
  </g>
</svg>
