<svg xmlns="http://www.w3.org/2000/svg" width="20" height="20" viewBox="0 0 20 20">
  <path id="youtube-square" d="M8.339,39.594l4.25,2.415-4.25,2.415ZM20,34.143V49.857A2.143,2.143,0,0,1,17.857,52H2.143A2.143,2.143,0,0,1,0,49.857V34.143A2.143,2.143,0,0,1,2.143,32H17.857A2.143,2.143,0,0,1,20,34.143Zm-1.875,7.871a21.451,21.451,0,0,0-.339-3.937,2.038,2.038,0,0,0-1.438-1.446A47.939,47.939,0,0,0,10,36.286a47.939,47.939,0,0,0-6.348.344,2.038,2.038,0,0,0-1.437,1.446,23.018,23.018,0,0,0,0,7.875,2.008,2.008,0,0,0,1.438,1.424A48.564,48.564,0,0,0,10,47.714a47.939,47.939,0,0,0,6.348-.344,2.008,2.008,0,0,0,1.438-1.424,21.385,21.385,0,0,0,.339-3.933Z" transform="translate(0 -32)" fill="#49505a"/>
</svg>
